<svg width="64" height="64" viewBox="0 0 64 64" xmlns="http://www.w3.org/2000/svg" role="img" aria-label="Travel Blog Logo">
  <!-- Location Pin -->
  <path d="M20 8c-6 0-11 5-11 11 0 8 11 20 11 20s11-12 11-20c0-6-5-11-11-11z" fill="#0ea5a4"/>
  <circle cx="20" cy="19" r="4" fill="#ffffff" />
  
  <!-- Airplane -->
  <g transform="translate(44, 44)">
    <path d="M-8-8 L-6-6 L-12-2 L-6 0 L-8 8 L-4 6 L0 8 L2 6 L6 0 L12-2 L6-6 L8-8 L4-6 L0-8 Z" fill="#0ea5a4"/>
    <ellipse cx="0" cy="-2" rx="3" ry="2" fill="#ffffff" opacity="0.8"/>
  </g>
</svg>
